<svg xmlns="http://www.w3.org/2000/svg" xmlns:xlink="http://www.w3.org/1999/xlink" contentStyleType="text/css" data-diagram-type="CLASS" height="3262.5px" preserveAspectRatio="none" style="width:10356px;height:3262px;background:#FFFFFF;" version="1.1" viewBox="0 0 10356 3262" width="10356.25px" zoomAndPan="magnify"><defs/><g><!--class C_0016728239890416061315--><g class="entity" data-entity="C_0016728239890416061315" data-source-line="2" data-uid="ent0002" id="entity_C_0016728239890416061315"><rect fill="#F1F1F1" height="201.5259" rx="7.8125" ry="7.8125" style="stroke:#181818;stroke-width:1.5625;" width="1595.0043" x="503.0313" y="292"/><ellipse cx="910.624" cy="342" fill="#ADD1B2" rx="34.375" ry="34.375" style="stroke:#181818;stroke-width:3.125;"/><path d="M918.3526,361.1971 Q916.5368,362.1309 914.5394,362.5978 Q912.5421,363.0648 910.3372,363.0648 Q902.5033,363.0648 898.3788,357.9027 Q894.2544,352.7407 894.2544,342.9872 Q894.2544,333.2079 898.3788,328.0458 Q902.5033,322.8838 910.3372,322.8838 Q912.5421,322.8838 914.5654,323.3507 Q916.5887,323.8176 918.3526,324.7515 L918.3526,333.2598 Q916.3812,331.444 914.5265,330.6009 Q912.6718,329.7579 910.7003,329.7579 Q906.498,329.7579 904.358,333.0912 Q902.218,336.4244 902.218,342.9872 Q902.218,349.5241 904.358,352.8574 Q906.498,356.1907 910.7003,356.1907 Q912.6718,356.1907 914.5265,355.3476 Q916.3812,354.5046 918.3526,352.6888 Z " fill="#000000"/><text fill="#000000" font-family="sans-serif" font-size="43.75" lengthAdjust="spacing" textLength="753.2562" x="974.6865" y="358.5344">sw::features::ActionExecutorService</text><line style="stroke:#181818;stroke-width:1.5625;" x1="506.1563" x2="2094.9105" y1="392" y2="392"/><ellipse cx="537.4063" cy="434.9504" fill="#84BE84" rx="9.375" ry="9.375" style="stroke:#038048;stroke-width:3.125;"/><text fill="#000000" font-family="sans-serif" font-size="43.75" lengthAdjust="spacing" textLength="1513.7543" x="565.5313" y="446.7974">execute(sw::core::Unit &amp; unit, sw::core::ActionContext &amp; context) : bool</text><line style="stroke:#181818;stroke-width:1.5625;" x1="506.1563" x2="2094.9105" y1="468.5259" y2="468.5259"/></g><!--class C_0011322766189690311248--><g class="entity" data-entity="C_0011322766189690311248" data-source-line="7" data-uid="ent0003" id="entity_C_0011322766189690311248"><rect fill="#F1F1F1" height="741.7847" rx="7.8125" ry="7.8125" style="stroke:#181818;stroke-width:1.5625;" width="2348.5809" x="2207.5" y="21.875"/><ellipse cx="3079.8511" cy="71.875" fill="#ADD1B2" rx="34.375" ry="34.375" style="stroke:#181818;stroke-width:3.125;"/><path d="M3087.5797,91.0721 Q3085.7639,92.0059 3083.7665,92.4728 Q3081.7691,92.9398 3079.5642,92.9398 Q3071.7303,92.9398 3067.6059,87.7777 Q3063.4814,82.6157 3063.4814,72.8622 Q3063.4814,63.0829 3067.6059,57.9208 Q3071.7303,52.7588 3079.5642,52.7588 Q3081.7691,52.7588 3083.7924,53.2257 Q3085.8157,53.6926 3087.5797,54.6265 L3087.5797,63.1348 Q3085.6082,61.319 3083.7535,60.4759 Q3081.8988,59.6329 3079.9274,59.6329 Q3075.7251,59.6329 3073.5851,62.9662 Q3071.445,66.2994 3071.445,72.8622 Q3071.445,79.3991 3073.5851,82.7324 Q3075.7251,86.0657 3079.9274,86.0657 Q3081.8988,86.0657 3083.7535,85.2226 Q3085.6082,84.3796 3087.5797,82.5638 Z " fill="#000000"/><text fill="#000000" font-family="sans-serif" font-size="43.75" lengthAdjust="spacing" textLength="577.3163" x="3143.9136" y="88.4094">sw::features::RangedAttack</text><line style="stroke:#181818;stroke-width:1.5625;" x1="2210.625" x2="4552.9559" y1="121.875" y2="121.875"/><ellipse cx="2241.875" cy="164.8254" fill="#84BE84" rx="9.375" ry="9.375" style="stroke:#038048;stroke-width:3.125;"/><text fill="#000000" font-family="sans-serif" font-size="43.75" lengthAdjust="spacing" textLength="2145.5231" x="2270" y="176.6724">RangedAttack(int minRange, int maxRange, int damage, bool requiresNoAdjacentUnits = false) : void</text><line style="stroke:#181818;stroke-width:3.125;stroke-dasharray:3.125,6.25;" x1="2210.625" x2="4552.9559" y1="198.4009" y2="198.4009"/><ellipse cx="2241.875" cy="241.3513" fill="#84BE84" rx="9.375" ry="9.375" style="stroke:#038048;stroke-width:3.125;"/><text fill="#000000" font-family="sans-serif" font-size="43.75" lengthAdjust="spacing" textLength="1592.9871" x="2270" y="253.1982">canExecute(const Unit &amp; actor, const ActionCheckContext &amp; context) : bool</text><rect fill="#F24D5C" height="18.75" style="stroke:#C82930;stroke-width:3.125;" width="18.75" x="2232.5" y="283.5022"/><text fill="#000000" font-family="sans-serif" font-size="43.75" lengthAdjust="spacing" textLength="2018.0969" x="2270" y="304.7241">canPerformRangedAttack(const Unit &amp; actor, const ActionCheckContext &amp; context) const : bool</text><ellipse cx="2241.875" cy="344.4031" fill="#84BE84" rx="9.375" ry="9.375" style="stroke:#038048;stroke-width:3.125;"/><text fill="#000000" font-family="sans-serif" font-size="43.75" lengthAdjust="spacing" textLength="1128.0365" x="2270" y="356.25">execute(Unit &amp; actor, ActionContext &amp; context) : void</text><rect fill="#F24D5C" height="18.75" style="stroke:#C82930;stroke-width:3.125;" width="18.75" x="2232.5" y="386.554"/><text fill="#000000" font-family="sans-serif" font-size="43.75" lengthAdjust="spacing" textLength="2047.9401" x="2270" y="407.7759">findTargets(const Unit &amp; actor, const ActionCheckContext &amp; context) const : std::vector&lt;Unit *&gt;</text><rect fill="#F24D5C" height="18.75" style="stroke:#C82930;stroke-width:3.125;" width="18.75" x="2232.5" y="438.0798"/><text fill="#000000" font-family="sans-serif" font-size="43.75" lengthAdjust="spacing" textLength="1910.0677" x="2270" y="459.3018">hasNoAdjacentUnits(const Unit &amp; actor, const ActionCheckContext &amp; context) const : bool</text><rect fill="#F24D5C" height="18.75" style="stroke:#C82930;stroke-width:3.125;" width="18.75" x="2232.5" y="489.6057"/><text fill="#000000" font-family="sans-serif" font-size="43.75" lengthAdjust="spacing" textLength="2267.3309" x="2270" y="510.8276">isValidTarget(Unit * target, const Unit &amp; actor, const Position &amp; pos, const Position &amp; actorPos) const : bool</text><line style="stroke:#181818;stroke-width:1.5625;" x1="2210.625" x2="4552.9559" y1="532.5562" y2="532.5562"/><rect fill="none" height="18.75" style="stroke:#C82930;stroke-width:3.125;" width="18.75" x="2232.5" y="566.1316"/><text fill="#000000" font-family="sans-serif" font-size="43.75" lengthAdjust="spacing" textLength="266.0461" x="2270" y="587.3535">damage : int</text><rect fill="none" height="18.75" style="stroke:#C82930;stroke-width:3.125;" width="18.75" x="2232.5" y="617.6575"/><text fill="#000000" font-family="sans-serif" font-size="43.75" lengthAdjust="spacing" textLength="320.1569" x="2270" y="638.8794">maxRange : int</text><rect fill="none" height="18.75" style="stroke:#C82930;stroke-width:3.125;" width="18.75" x="2232.5" y="669.1833"/><text fill="#000000" font-family="sans-serif" font-size="43.75" lengthAdjust="spacing" textLength="308.963" x="2270" y="690.4053">minRange : int</text><rect fill="none" height="18.75" style="stroke:#C82930;stroke-width:3.125;" width="18.75" x="2232.5" y="720.7092"/><text fill="#000000" font-family="sans-serif" font-size="43.75" lengthAdjust="spacing" textLength="663.1073" x="2270" y="741.9312">requiresNoAdjacentUnits : bool</text></g><!--class C_0003375470535856169922--><g class="entity" data-entity="C_0003375470535856169922" data-source-line="23" data-uid="ent0004" id="entity_C_0003375470535856169922"><rect fill="#F1F1F1" height="484.1553" rx="7.8125" ry="7.8125" style="stroke:#181818;stroke-width:1.5625;" width="3328.0853" x="4664.625" y="150.6875"/><ellipse cx="6117.5501" cy="200.6875" fill="#ADD1B2" rx="34.375" ry="34.375" style="stroke:#181818;stroke-width:3.125;"/><path d="M6125.2787,219.8846 Q6123.4629,220.8184 6121.4655,221.2853 Q6119.4681,221.7523 6117.2632,221.7523 Q6109.4294,221.7523 6105.3049,216.5902 Q6101.1805,211.4282 6101.1805,201.6747 Q6101.1805,191.8954 6105.3049,186.7333 Q6109.4294,181.5713 6117.2632,181.5713 Q6119.4681,181.5713 6121.4915,182.0382 Q6123.5148,182.5051 6125.2787,183.439 L6125.2787,191.9473 Q6123.3073,190.1315 6121.4525,189.2884 Q6119.5978,188.4454 6117.6264,188.4454 Q6113.4241,188.4454 6111.2841,191.7787 Q6109.144,195.1119 6109.144,201.6747 Q6109.144,208.2116 6111.2841,211.5449 Q6113.4241,214.8782 6117.6264,214.8782 Q6119.5978,214.8782 6121.4525,214.0351 Q6123.3073,213.1921 6125.2787,211.3763 Z " fill="#000000"/><text fill="#000000" font-family="sans-serif" font-size="43.75" lengthAdjust="spacing" textLength="395.6726" x="6181.6126" y="217.2219">sw::features::Move</text><line style="stroke:#181818;stroke-width:1.5625;" x1="4667.75" x2="7989.5853" y1="250.6875" y2="250.6875"/><ellipse cx="4699" cy="293.6379" fill="#84BE84" rx="9.375" ry="9.375" style="stroke:#038048;stroke-width:3.125;"/><text fill="#000000" font-family="sans-serif" font-size="43.75" lengthAdjust="spacing" textLength="849.0234" x="4727.125" y="305.4849">Move(uint32_t moveDistance = 1) : void</text><line style="stroke:#181818;stroke-width:3.125;stroke-dasharray:3.125,6.25;" x1="4667.75" x2="7989.5853" y1="327.2134" y2="327.2134"/><ellipse cx="4699" cy="370.1638" fill="#84BE84" rx="9.375" ry="9.375" style="stroke:#038048;stroke-width:3.125;"/><text fill="#000000" font-family="sans-serif" font-size="43.75" lengthAdjust="spacing" textLength="1592.9871" x="4727.125" y="382.0107">canExecute(const Unit &amp; actor, const ActionCheckContext &amp; context) : bool</text><rect fill="#F24D5C" height="18.75" style="stroke:#C82930;stroke-width:3.125;" width="18.75" x="4689.625" y="412.3147"/><text fill="#000000" font-family="sans-serif" font-size="43.75" lengthAdjust="spacing" textLength="2166.0095" x="4727.125" y="433.5366">endMarch(Unit &amp; actor, const Position &amp; pos, IEventLogger &amp; logger, uint64_t currentTick) const : void</text><ellipse cx="4699" cy="473.2156" fill="#84BE84" rx="9.375" ry="9.375" style="stroke:#038048;stroke-width:3.125;"/><text fill="#000000" font-family="sans-serif" font-size="43.75" lengthAdjust="spacing" textLength="1128.0365" x="4727.125" y="485.0625">execute(Unit &amp; actor, ActionContext &amp; context) : void</text><rect fill="#F24D5C" height="18.75" style="stroke:#C82930;stroke-width:3.125;" width="18.75" x="4689.625" y="515.3665"/><text fill="#000000" font-family="sans-serif" font-size="43.75" lengthAdjust="spacing" textLength="3246.8353" x="4727.125" y="536.5884">updateUnitPosition(Unit &amp; actor, IMap &amp; map, const Position &amp; newPos, const Position &amp; oldPos, IEventLogger &amp; logger, uint64_t currentTick) const : void</text><line style="stroke:#181818;stroke-width:1.5625;" x1="4667.75" x2="7989.5853" y1="558.3169" y2="558.3169"/><rect fill="none" height="18.75" style="stroke:#C82930;stroke-width:3.125;" width="18.75" x="4689.625" y="591.8923"/><text fill="#000000" font-family="sans-serif" font-size="43.75" lengthAdjust="spacing" textLength="515.3229" x="4727.125" y="613.1143">moveDistance : uint32_t</text></g><!--class C_0012407641239717902586--><g class="entity" data-entity="C_0012407641239717902586" data-source-line="34" data-uid="ent0005" id="entity_C_0012407641239717902586"><rect fill="#F1F1F1" height="432.6294" rx="7.8125" ry="7.8125" style="stroke:#181818;stroke-width:1.5625;" width="2234.7839" x="8101.875" y="176.4375"/><ellipse cx="8934.6844" cy="226.4375" fill="#ADD1B2" rx="34.375" ry="34.375" style="stroke:#181818;stroke-width:3.125;"/><path d="M8942.413,245.6346 Q8940.5972,246.5684 8938.5999,247.0353 Q8936.6025,247.5023 8934.3976,247.5023 Q8926.5637,247.5023 8922.4393,242.3402 Q8918.3148,237.1782 8918.3148,227.4247 Q8918.3148,217.6454 8922.4393,212.4833 Q8926.5637,207.3213 8934.3976,207.3213 Q8936.6025,207.3213 8938.6258,207.7882 Q8940.6491,208.2551 8942.413,209.189 L8942.413,217.6973 Q8940.4416,215.8815 8938.5869,215.0384 Q8936.7322,214.1954 8934.7607,214.1954 Q8930.5585,214.1954 8928.4184,217.5287 Q8926.2784,220.8619 8926.2784,227.4247 Q8926.2784,233.9616 8928.4184,237.2949 Q8930.5585,240.6282 8934.7607,240.6282 Q8936.7322,240.6282 8938.5869,239.7851 Q8940.4416,238.9421 8942.413,237.1263 Z " fill="#000000"/><text fill="#000000" font-family="sans-serif" font-size="43.75" lengthAdjust="spacing" textLength="542.6025" x="8998.7469" y="242.9719">sw::features::MeleeAttack</text><line style="stroke:#181818;stroke-width:1.5625;" x1="8105" x2="10333.5339" y1="276.4375" y2="276.4375"/><ellipse cx="8136.25" cy="319.3879" fill="#84BE84" rx="9.375" ry="9.375" style="stroke:#038048;stroke-width:3.125;"/><text fill="#000000" font-family="sans-serif" font-size="43.75" lengthAdjust="spacing" textLength="656.5491" x="8164.375" y="331.2349">MeleeAttack(int damage) : void</text><line style="stroke:#181818;stroke-width:3.125;stroke-dasharray:3.125,6.25;" x1="8105" x2="10333.5339" y1="352.9634" y2="352.9634"/><ellipse cx="8136.25" cy="395.9138" fill="#84BE84" rx="9.375" ry="9.375" style="stroke:#038048;stroke-width:3.125;"/><text fill="#000000" font-family="sans-serif" font-size="43.75" lengthAdjust="spacing" textLength="1592.9871" x="8164.375" y="407.7607">canExecute(const Unit &amp; actor, const ActionCheckContext &amp; context) : bool</text><ellipse cx="8136.25" cy="447.4397" fill="#84BE84" rx="9.375" ry="9.375" style="stroke:#038048;stroke-width:3.125;"/><text fill="#000000" font-family="sans-serif" font-size="43.75" lengthAdjust="spacing" textLength="1128.0365" x="8164.375" y="459.2866">execute(Unit &amp; actor, ActionContext &amp; context) : void</text><rect fill="#F24D5C" height="18.75" style="stroke:#C82930;stroke-width:3.125;" width="18.75" x="8126.875" y="489.5906"/><text fill="#000000" font-family="sans-serif" font-size="43.75" lengthAdjust="spacing" textLength="2153.5339" x="8164.375" y="510.8125">findValidTargets(const Unit &amp; actor, const ActionCheckContext &amp; context) const : std::vector&lt;Unit *&gt;</text><line style="stroke:#181818;stroke-width:1.5625;" x1="8105" x2="10333.5339" y1="532.541" y2="532.541"/><rect fill="none" height="18.75" style="stroke:#C82930;stroke-width:3.125;" width="18.75" x="8126.875" y="566.1165"/><text fill="#000000" font-family="sans-serif" font-size="43.75" lengthAdjust="spacing" textLength="266.0461" x="8164.375" y="587.3384">damage : int</text></g><!--class C_0010075965441875301016--><g class="entity" data-entity="C_0010075965441875301016" data-source-line="44" data-uid="ent0006" id="entity_C_0010075965441875301016"><rect fill="#F1F1F1" height="381.1035" rx="7.8125" ry="7.8125" style="stroke:#181818;stroke-width:1.5625;" width="2053.2043" x="273.9375" y="1131.5"/><ellipse cx="875.7991" cy="1181.5" fill="#ADD1B2" rx="34.375" ry="34.375" style="stroke:#181818;stroke-width:3.125;"/><path d="M883.5276,1200.6971 Q881.7119,1201.6309 879.7145,1202.0978 Q877.7171,1202.5648 875.5122,1202.5648 Q867.6783,1202.5648 863.5539,1197.4027 Q859.4294,1192.2407 859.4294,1182.4872 Q859.4294,1172.7079 863.5539,1167.5458 Q867.6783,1162.3838 875.5122,1162.3838 Q877.7171,1162.3838 879.7404,1162.8507 Q881.7637,1163.3176 883.5276,1164.2515 L883.5276,1172.7598 Q881.5562,1170.944 879.7015,1170.1009 Q877.8468,1169.2579 875.8754,1169.2579 Q871.6731,1169.2579 869.5331,1172.5912 Q867.393,1175.9244 867.393,1182.4872 Q867.393,1189.0241 869.5331,1192.3574 Q871.6731,1195.6907 875.8754,1195.6907 Q877.8468,1195.6907 879.7015,1194.8476 Q881.5562,1194.0046 883.5276,1192.1888 Z " fill="#000000"/><text fill="#000000" font-family="sans-serif" font-size="43.75" lengthAdjust="spacing" textLength="822.9187" x="939.8616" y="1198.0344">sw::features::ActionAvailabilityChecker</text><line style="stroke:#181818;stroke-width:1.5625;" x1="277.0625" x2="2324.0168" y1="1231.5" y2="1231.5"/><ellipse cx="308.3125" cy="1274.4504" fill="#84BE84" rx="9.375" ry="9.375" style="stroke:#038048;stroke-width:3.125;"/><text fill="#000000" font-family="sans-serif" font-size="43.75" lengthAdjust="spacing" textLength="1971.9543" x="336.4375" y="1286.2974">ActionAvailabilityChecker(sw::core::IMap * map, sw::core::IUnitManager * unitManager) : void</text><line style="stroke:#181818;stroke-width:3.125;stroke-dasharray:3.125,6.25;" x1="277.0625" x2="2324.0168" y1="1308.0259" y2="1308.0259"/><ellipse cx="308.3125" cy="1350.9763" fill="#84BE84" rx="9.375" ry="9.375" style="stroke:#038048;stroke-width:3.125;"/><text fill="#000000" font-family="sans-serif" font-size="43.75" lengthAdjust="spacing" textLength="1252.9633" x="336.4375" y="1362.8232">hasAvailableAction(const sw::core::Unit &amp; unit) const : bool</text><line style="stroke:#181818;stroke-width:1.5625;" x1="277.0625" x2="2324.0168" y1="1384.5518" y2="1384.5518"/><rect fill="none" height="18.75" style="stroke:#C82930;stroke-width:3.125;" width="18.75" x="298.9375" y="1418.1272"/><text fill="#000000" font-family="sans-serif" font-size="43.75" lengthAdjust="spacing" textLength="473.9227" x="336.4375" y="1439.3491">map : sw::core::IMap *</text><rect fill="none" height="18.75" style="stroke:#C82930;stroke-width:3.125;" width="18.75" x="298.9375" y="1469.6531"/><text fill="#000000" font-family="sans-serif" font-size="43.75" lengthAdjust="spacing" textLength="827.2125" x="336.4375" y="1490.875">unitManager : sw::core::IUnitManager *</text></g><!--class C_0007721080133597843415--><g class="entity" data-entity="C_0007721080133597843415" data-source-line="53" data-uid="ent0007" id="entity_C_0007721080133597843415"><rect fill="#F1F1F1" height="381.1035" rx="7.8125" ry="7.8125" style="stroke:#181818;stroke-width:1.5625;" width="2740.7928" x="2436.375" y="1131.5"/><ellipse cx="3367.5151" cy="1181.5" fill="#ADD1B2" rx="34.375" ry="34.375" style="stroke:#181818;stroke-width:3.125;"/><path d="M3375.2437,1200.6971 Q3373.4279,1201.6309 3371.4305,1202.0978 Q3369.4332,1202.5648 3367.2283,1202.5648 Q3359.3944,1202.5648 3355.27,1197.4027 Q3351.1455,1192.2407 3351.1455,1182.4872 Q3351.1455,1172.7079 3355.27,1167.5458 Q3359.3944,1162.3838 3367.2283,1162.3838 Q3369.4332,1162.3838 3371.4565,1162.8507 Q3373.4798,1163.3176 3375.2437,1164.2515 L3375.2437,1172.7598 Q3373.2723,1170.944 3371.4176,1170.1009 Q3369.5629,1169.2579 3367.5914,1169.2579 Q3363.3892,1169.2579 3361.2491,1172.5912 Q3359.1091,1175.9244 3359.1091,1182.4872 Q3359.1091,1189.0241 3361.2491,1192.3574 Q3363.3892,1195.6907 3367.5914,1195.6907 Q3369.5629,1195.6907 3371.4176,1194.8476 Q3373.2723,1194.0046 3375.2437,1192.1888 Z " fill="#000000"/><text fill="#000000" font-family="sans-serif" font-size="43.75" lengthAdjust="spacing" textLength="851.9501" x="3431.5776" y="1198.0344">sw::features::GameContinuationChecker</text><line style="stroke:#181818;stroke-width:1.5625;" x1="2439.5" x2="5174.0428" y1="1231.5" y2="1231.5"/><ellipse cx="2470.75" cy="1274.4504" fill="#84BE84" rx="9.375" ry="9.375" style="stroke:#038048;stroke-width:3.125;"/><text fill="#000000" font-family="sans-serif" font-size="43.75" lengthAdjust="spacing" textLength="2659.5428" x="2498.875" y="1286.2974">GameContinuationChecker(sw::core::IUnitManager * unitManager, sw::core::IActionAvailabilityChecker * actionChecker) : void</text><line style="stroke:#181818;stroke-width:3.125;stroke-dasharray:3.125,6.25;" x1="2439.5" x2="5174.0428" y1="1308.0259" y2="1308.0259"/><ellipse cx="2470.75" cy="1350.9763" fill="#84BE84" rx="9.375" ry="9.375" style="stroke:#038048;stroke-width:3.125;"/><text fill="#000000" font-family="sans-serif" font-size="43.75" lengthAdjust="spacing" textLength="628.5004" x="2498.875" y="1362.8232">shouldContinue() const : bool</text><line style="stroke:#181818;stroke-width:1.5625;" x1="2439.5" x2="5174.0428" y1="1384.5518" y2="1384.5518"/><rect fill="none" height="18.75" style="stroke:#C82930;stroke-width:3.125;" width="18.75" x="2461.375" y="1418.1272"/><text fill="#000000" font-family="sans-serif" font-size="43.75" lengthAdjust="spacing" textLength="1132.4799" x="2498.875" y="1439.3491">actionChecker : sw::core::IActionAvailabilityChecker *</text><rect fill="none" height="18.75" style="stroke:#C82930;stroke-width:3.125;" width="18.75" x="2461.375" y="1469.6531"/><text fill="#000000" font-family="sans-serif" font-size="43.75" lengthAdjust="spacing" textLength="827.2125" x="2498.875" y="1490.875">unitManager : sw::core::IUnitManager *</text></g><!--class C_0013127166620023903582--><g class="entity" data-entity="C_0013127166620023903582" data-source-line="62" data-uid="ent0008" id="entity_C_0013127166620023903582"><rect fill="#F1F1F1" height="356.1035" rx="7.8125" ry="7.8125" style="stroke:#181818;stroke-width:1.5625;" width="1121.402" x="5286.7188" y="1144"/><ellipse cx="5556.044" cy="1194" fill="#ADD1B2" rx="34.375" ry="34.375" style="stroke:#181818;stroke-width:3.125;"/><path d="M5563.7726,1213.1971 Q5561.9568,1214.1309 5559.9594,1214.5978 Q5557.962,1215.0648 5555.7571,1215.0648 Q5547.9233,1215.0648 5543.7988,1209.9027 Q5539.6744,1204.7407 5539.6744,1194.9872 Q5539.6744,1185.2079 5543.7988,1180.0458 Q5547.9233,1174.8838 5555.7571,1174.8838 Q5557.962,1174.8838 5559.9854,1175.3507 Q5562.0087,1175.8176 5563.7726,1176.7515 L5563.7726,1185.2598 Q5561.8011,1183.444 5559.9464,1182.6009 Q5558.0917,1181.7579 5556.1203,1181.7579 Q5551.918,1181.7579 5549.778,1185.0912 Q5547.6379,1188.4244 5547.6379,1194.9872 Q5547.6379,1201.5241 5549.778,1204.8574 Q5551.918,1208.1907 5556.1203,1208.1907 Q5558.0917,1208.1907 5559.9464,1207.3476 Q5561.8011,1206.5046 5563.7726,1204.6888 Z " fill="#000000"/><text fill="#000000" font-family="sans-serif" font-size="43.75" lengthAdjust="spacing" textLength="556.189" x="5620.1065" y="1210.5344">sw::features::MapManager</text><line style="stroke:#181818;stroke-width:1.5625;" x1="5289.8438" x2="6404.9957" y1="1244" y2="1244"/><ellipse cx="5321.0938" cy="1286.9504" fill="#84BE84" rx="9.375" ry="9.375" style="stroke:#038048;stroke-width:3.125;"/><text fill="#000000" font-family="sans-serif" font-size="43.75" lengthAdjust="spacing" textLength="1040.152" x="5349.2188" y="1298.7974">createMap(uint32_t width, uint32_t height) : void</text><ellipse cx="5321.0938" cy="1338.4763" fill="#84BE84" rx="9.375" ry="9.375" style="stroke:#038048;stroke-width:3.125;"/><text fill="#000000" font-family="sans-serif" font-size="43.75" lengthAdjust="spacing" textLength="696.1761" x="5349.2188" y="1350.3232">getMap() const : sw::core::IMap *</text><ellipse cx="5321.0938" cy="1390.0022" fill="#84BE84" rx="9.375" ry="9.375" style="stroke:#038048;stroke-width:3.125;"/><text fill="#000000" font-family="sans-serif" font-size="43.75" lengthAdjust="spacing" textLength="455.8502" x="5349.2188" y="1401.8491">hasMap() const : bool</text><line style="stroke:#181818;stroke-width:1.5625;" x1="5289.8438" x2="6404.9957" y1="1423.5776" y2="1423.5776"/><rect fill="none" height="18.75" style="stroke:#C82930;stroke-width:3.125;" width="18.75" x="5311.7188" y="1457.1531"/><text fill="#000000" font-family="sans-serif" font-size="43.75" lengthAdjust="spacing" textLength="832.1259" x="5349.2188" y="1478.375">map : std::unique_ptr&lt;sw::core::IMap&gt;</text></g><!--class C_0010704213268690151897--><g class="entity" data-entity="C_0010704213268690151897" data-source-line="70" data-uid="ent0009" id="entity_C_0010704213268690151897"><rect fill="#F1F1F1" height="741.7847" rx="7.8125" ry="7.8125" style="stroke:#181818;stroke-width:1.5625;" width="2099.1547" x="6516.5938" y="951.1563"/><ellipse cx="7366.1512" cy="1001.1563" fill="#ADD1B2" rx="34.375" ry="34.375" style="stroke:#181818;stroke-width:3.125;"/><path d="M7373.8798,1020.3533 Q7372.064,1021.2872 7370.0667,1021.7541 Q7368.0693,1022.221 7365.8644,1022.221 Q7358.0305,1022.221 7353.9061,1017.059 Q7349.7816,1011.8969 7349.7816,1002.1435 Q7349.7816,992.3641 7353.9061,987.2021 Q7358.0305,982.04 7365.8644,982.04 Q7368.0693,982.04 7370.0926,982.507 Q7372.1159,982.9739 7373.8798,983.9077 L7373.8798,992.416 Q7371.9084,990.6002 7370.0537,989.7572 Q7368.199,988.9141 7366.2275,988.9141 Q7362.0253,988.9141 7359.8852,992.2474 Q7357.7452,995.5807 7357.7452,1002.1435 Q7357.7452,1008.6804 7359.8852,1012.0136 Q7362.0253,1015.3469 7366.2275,1015.3469 Q7368.199,1015.3469 7370.0537,1014.5039 Q7371.9084,1013.6608 7373.8798,1011.845 Z " fill="#000000"/><text fill="#000000" font-family="sans-serif" font-size="43.75" lengthAdjust="spacing" textLength="373.4772" x="7430.2137" y="1017.6907">sw::features::Map</text><line style="stroke:#181818;stroke-width:1.5625;" x1="6519.7188" x2="8612.6234" y1="1051.1563" y2="1051.1563"/><ellipse cx="6550.9688" cy="1094.1067" fill="#84BE84" rx="9.375" ry="9.375" style="stroke:#038048;stroke-width:3.125;"/><text fill="#000000" font-family="sans-serif" font-size="43.75" lengthAdjust="spacing" textLength="910.5682" x="6579.0938" y="1105.9536">Map(uint32_t width, uint32_t height) : void</text><line style="stroke:#181818;stroke-width:3.125;stroke-dasharray:3.125,6.25;" x1="6519.7188" x2="8612.6234" y1="1127.6821" y2="1127.6821"/><ellipse cx="6550.9688" cy="1170.6326" fill="#84BE84" rx="9.375" ry="9.375" style="stroke:#038048;stroke-width:3.125;"/><text fill="#000000" font-family="sans-serif" font-size="43.75" lengthAdjust="spacing" textLength="1289.5142" x="6579.0938" y="1182.4795">free(const sw::core::Position &amp; pos, sw::core::UnitId id) : void</text><ellipse cx="6550.9688" cy="1222.1584" fill="#84BE84" rx="9.375" ry="9.375" style="stroke:#038048;stroke-width:3.125;"/><text fill="#000000" font-family="sans-serif" font-size="43.75" lengthAdjust="spacing" textLength="583.7891" x="6579.0938" y="1234.0054">getHeight() const : uint32_t</text><ellipse cx="6550.9688" cy="1273.6843" fill="#84BE84" rx="9.375" ry="9.375" style="stroke:#038048;stroke-width:3.125;"/><text fill="#000000" font-family="sans-serif" font-size="43.75" lengthAdjust="spacing" textLength="1681.662" x="6579.0938" y="1285.5313">getUnitsAt(const sw::core::Position &amp; pos) const : std::vector&lt;sw::core::UnitId&gt;</text><ellipse cx="6550.9688" cy="1325.2102" fill="#84BE84" rx="9.375" ry="9.375" style="stroke:#038048;stroke-width:3.125;"/><text fill="#000000" font-family="sans-serif" font-size="43.75" lengthAdjust="spacing" textLength="564.9475" x="6579.0938" y="1337.0571">getWidth() const : uint32_t</text><ellipse cx="6550.9688" cy="1376.7361" fill="#84BE84" rx="9.375" ry="9.375" style="stroke:#038048;stroke-width:3.125;"/><text fill="#000000" font-family="sans-serif" font-size="43.75" lengthAdjust="spacing" textLength="1161.6821" x="6579.0938" y="1388.583">isOccupied(const sw::core::Position &amp; pos) const : bool</text><ellipse cx="6550.9688" cy="1428.262" fill="#84BE84" rx="9.375" ry="9.375" style="stroke:#038048;stroke-width:3.125;"/><text fill="#000000" font-family="sans-serif" font-size="43.75" lengthAdjust="spacing" textLength="1069.2261" x="6579.0938" y="1440.1089">isValid(const sw::core::Position &amp; pos) const : bool</text><ellipse cx="6550.9688" cy="1479.7878" fill="#84BE84" rx="9.375" ry="9.375" style="stroke:#038048;stroke-width:3.125;"/><text fill="#000000" font-family="sans-serif" font-size="43.75" lengthAdjust="spacing" textLength="1356.015" x="6579.0938" y="1491.6348">occupy(const sw::core::Position &amp; pos, sw::core::UnitId id) : void</text><line style="stroke:#181818;stroke-width:1.5625;" x1="6519.7188" x2="8612.6234" y1="1513.3633" y2="1513.3633"/><rect fill="none" height="18.75" style="stroke:#C82930;stroke-width:3.125;" width="18.75" x="6541.5938" y="1546.9387"/><text fill="#000000" font-family="sans-serif" font-size="43.75" lengthAdjust="spacing" textLength="353.3752" x="6579.0938" y="1568.1606">height : uint32_t</text><rect fill="none" height="18.75" style="stroke:#C82930;stroke-width:3.125;" width="18.75" x="6541.5938" y="1598.4646"/><text fill="#000000" font-family="sans-serif" font-size="43.75" lengthAdjust="spacing" textLength="2017.9047" x="6579.0938" y="1619.6865">occupiedCells : std::unordered_map&lt;sw::core::Position,std::unordered_set&lt;sw::core::UnitId&gt;&gt;</text><rect fill="none" height="18.75" style="stroke:#C82930;stroke-width:3.125;" width="18.75" x="6541.5938" y="1649.9905"/><text fill="#000000" font-family="sans-serif" font-size="43.75" lengthAdjust="spacing" textLength="335.8154" x="6579.0938" y="1671.2124">width : uint32_t</text></g><!--class C_0009567896059792218318--><g class="entity" data-entity="C_0009567896059792218318" data-source-line="86" data-uid="ent0010" id="entity_C_0009567896059792218318"><rect fill="#F1F1F1" height="741.7847" rx="7.8125" ry="7.8125" style="stroke:#181818;stroke-width:1.5625;" width="2557.312" x="21.875" y="1880.4375"/><ellipse cx="933.8318" cy="1930.4375" fill="#ADD1B2" rx="34.375" ry="34.375" style="stroke:#181818;stroke-width:3.125;"/><path d="M941.5604,1949.6346 Q939.7446,1950.5684 937.7472,1951.0353 Q935.7498,1951.5023 933.5449,1951.5023 Q925.7111,1951.5023 921.5866,1946.3402 Q917.4622,1941.1782 917.4622,1931.4247 Q917.4622,1921.6454 921.5866,1916.4833 Q925.7111,1911.3213 933.5449,1911.3213 Q935.7498,1911.3213 937.7731,1911.7882 Q939.7964,1912.2551 941.5604,1913.189 L941.5604,1921.6973 Q939.5889,1919.8815 937.7342,1919.0384 Q935.8795,1918.1954 933.9081,1918.1954 Q929.7058,1918.1954 927.5658,1921.5287 Q925.4257,1924.8619 925.4257,1931.4247 Q925.4257,1937.9616 927.5658,1941.2949 Q929.7058,1944.6282 933.9081,1944.6282 Q935.8795,1944.6282 937.7342,1943.7851 Q939.5889,1942.9421 941.5604,1941.1263 Z " fill="#000000"/><text fill="#000000" font-family="sans-serif" font-size="43.75" lengthAdjust="spacing" textLength="706.8359" x="997.8943" y="1946.9719">sw::features::DefaultUnitManager</text><line style="stroke:#181818;stroke-width:1.5625;" x1="25" x2="2576.062" y1="1980.4375" y2="1980.4375"/><ellipse cx="56.25" cy="2023.3879" fill="#84BE84" rx="9.375" ry="9.375" style="stroke:#038048;stroke-width:3.125;"/><text fill="#000000" font-family="sans-serif" font-size="43.75" lengthAdjust="spacing" textLength="582.4219" x="84.375" y="2035.2349">DefaultUnitManager() : void</text><line style="stroke:#181818;stroke-width:3.125;stroke-dasharray:3.125,6.25;" x1="25" x2="2576.062" y1="2056.9634" y2="2056.9634"/><ellipse cx="56.25" cy="2099.9138" fill="#84BE84" rx="9.375" ry="9.375" style="stroke:#038048;stroke-width:3.125;"/><text fill="#000000" font-family="sans-serif" font-size="43.75" lengthAdjust="spacing" textLength="1105.0934" x="84.375" y="2111.7607">addUnit(std::unique_ptr&lt;sw::core::Unit&gt; unit) : void</text><ellipse cx="56.25" cy="2151.4397" fill="#84BE84" rx="9.375" ry="9.375" style="stroke:#038048;stroke-width:3.125;"/><text fill="#000000" font-family="sans-serif" font-size="43.75" lengthAdjust="spacing" textLength="1061.3434" x="84.375" y="2163.2866">getUnit(sw::core::UnitId id) const : sw::core::Unit *</text><ellipse cx="56.25" cy="2202.9656" fill="#84BE84" rx="9.375" ry="9.375" style="stroke:#038048;stroke-width:3.125;"/><text fill="#000000" font-family="sans-serif" font-size="43.75" lengthAdjust="spacing" textLength="1558.252" x="84.375" y="2214.8125">getUnitFunction() const : std::function&lt;sw::core::Unit *(sw::core::UnitId)&gt;</text><ellipse cx="56.25" cy="2254.4915" fill="#84BE84" rx="9.375" ry="9.375" style="stroke:#038048;stroke-width:3.125;"/><text fill="#000000" font-family="sans-serif" font-size="43.75" lengthAdjust="spacing" textLength="1525.5676" x="84.375" y="2266.3384">getUnits() const : const std::vector&lt;std::unique_ptr&lt;sw::core::Unit&gt;&gt; &amp;</text><ellipse cx="56.25" cy="2306.0173" fill="#84BE84" rx="9.375" ry="9.375" style="stroke:#038048;stroke-width:3.125;"/><text fill="#000000" font-family="sans-serif" font-size="43.75" lengthAdjust="spacing" textLength="2217.0868" x="84.375" y="2317.8643">getUnitsInRadius(const sw::core::Position &amp; center, uint32_t radius) const : std::vector&lt;sw::core::Unit *&gt;</text><ellipse cx="56.25" cy="2357.5432" fill="#84BE84" rx="9.375" ry="9.375" style="stroke:#038048;stroke-width:3.125;"/><text fill="#000000" font-family="sans-serif" font-size="43.75" lengthAdjust="spacing" textLength="2476.062" x="84.375" y="2369.3901">getUnitsInRadiusFunction() const : std::function&lt;std::vector&lt;sw::core::Unit *&gt; (const sw::core::Position &amp;,uint32_t)&gt;</text><ellipse cx="56.25" cy="2409.0691" fill="#84BE84" rx="9.375" ry="9.375" style="stroke:#038048;stroke-width:3.125;"/><text fill="#000000" font-family="sans-serif" font-size="43.75" lengthAdjust="spacing" textLength="534.314" x="84.375" y="2420.916">removeDeadUnits() : void</text><ellipse cx="56.25" cy="2460.595" fill="#84BE84" rx="9.375" ry="9.375" style="stroke:#038048;stroke-width:3.125;"/><text fill="#000000" font-family="sans-serif" font-size="43.75" lengthAdjust="spacing" textLength="758.3405" x="84.375" y="2472.4419">setMap(sw::core::IMap * map) : void</text><line style="stroke:#181818;stroke-width:1.5625;" x1="25" x2="2576.062" y1="2494.1704" y2="2494.1704"/><rect fill="none" height="18.75" style="stroke:#C82930;stroke-width:3.125;" width="18.75" x="46.875" y="2527.7458"/><text fill="#000000" font-family="sans-serif" font-size="43.75" lengthAdjust="spacing" textLength="473.9227" x="84.375" y="2548.9678">map : sw::core::IMap *</text><rect fill="none" height="18.75" style="stroke:#C82930;stroke-width:3.125;" width="18.75" x="46.875" y="2579.2717"/><text fill="#000000" font-family="sans-serif" font-size="43.75" lengthAdjust="spacing" textLength="1123.7" x="84.375" y="2600.4937">units : std::vector&lt;std::unique_ptr&lt;sw::core::Unit&gt;&gt;</text></g><!--class C_0001604567808692115643--><g class="entity" data-entity="C_0001604567808692115643" data-source-line="102" data-uid="ent0011" id="entity_C_0001604567808692115643"><rect fill="#F1F1F1" height="535.6812" rx="7.8125" ry="7.8125" style="stroke:#181818;stroke-width:1.5625;" width="1826.8494" x="2687.0938" y="1983.4688"/><ellipse cx="3238.4442" cy="2033.4688" fill="#ADD1B2" rx="34.375" ry="34.375" style="stroke:#181818;stroke-width:3.125;"/><path d="M3246.1727,2052.6658 Q3244.3569,2053.5997 3242.3596,2054.0666 Q3240.3622,2054.5335 3238.1573,2054.5335 Q3230.3234,2054.5335 3226.199,2049.3715 Q3222.0745,2044.2094 3222.0745,2034.456 Q3222.0745,2024.6766 3226.199,2019.5146 Q3230.3234,2014.3525 3238.1573,2014.3525 Q3240.3622,2014.3525 3242.3855,2014.8195 Q3244.4088,2015.2864 3246.1727,2016.2202 L3246.1727,2024.7285 Q3244.2013,2022.9127 3242.3466,2022.0697 Q3240.4919,2021.2266 3238.5204,2021.2266 Q3234.3182,2021.2266 3232.1781,2024.5599 Q3230.0381,2027.8932 3230.0381,2034.456 Q3230.0381,2040.9929 3232.1781,2044.3261 Q3234.3182,2047.6594 3238.5204,2047.6594 Q3240.4919,2047.6594 3242.3466,2046.8164 Q3244.2013,2045.9733 3246.1727,2044.1575 Z " fill="#000000"/><text fill="#000000" font-family="sans-serif" font-size="43.75" lengthAdjust="spacing" textLength="697.5861" x="3302.5067" y="2050.0032">sw::features::UnitSpawnValidator</text><line style="stroke:#181818;stroke-width:1.5625;" x1="2690.2188" x2="4510.8181" y1="2083.4688" y2="2083.4688"/><ellipse cx="2721.4688" cy="2126.4192" fill="#84BE84" rx="9.375" ry="9.375" style="stroke:#038048;stroke-width:3.125;"/><text fill="#000000" font-family="sans-serif" font-size="43.75" lengthAdjust="spacing" textLength="573.172" x="2749.5938" y="2138.2661">UnitSpawnValidator() : void</text><line style="stroke:#181818;stroke-width:3.125;stroke-dasharray:3.125,6.25;" x1="2690.2188" x2="4510.8181" y1="2159.9946" y2="2159.9946"/><ellipse cx="2721.4688" cy="2202.9451" fill="#84BE84" rx="9.375" ry="9.375" style="stroke:#038048;stroke-width:3.125;"/><text fill="#000000" font-family="sans-serif" font-size="43.75" lengthAdjust="spacing" textLength="758.3405" x="2749.5938" y="2214.792">setMap(sw::core::IMap * map) : void</text><ellipse cx="2721.4688" cy="2254.4709" fill="#84BE84" rx="9.375" ry="9.375" style="stroke:#038048;stroke-width:3.125;"/><text fill="#000000" font-family="sans-serif" font-size="43.75" lengthAdjust="spacing" textLength="1291.4368" x="2749.5938" y="2266.3179">setUnitManager(sw::core::IUnitManager * unitManager) : void</text><ellipse cx="2721.4688" cy="2305.9968" fill="#84BE84" rx="9.375" ry="9.375" style="stroke:#038048;stroke-width:3.125;"/><text fill="#000000" font-family="sans-serif" font-size="43.75" lengthAdjust="spacing" textLength="1745.5994" x="2749.5938" y="2317.8438">validateUnitPosition(const sw::core::Position &amp; pos, bool occupiesCell) const : void</text><ellipse cx="2721.4688" cy="2357.5227" fill="#84BE84" rx="9.375" ry="9.375" style="stroke:#038048;stroke-width:3.125;"/><text fill="#000000" font-family="sans-serif" font-size="43.75" lengthAdjust="spacing" textLength="1235.6171" x="2749.5938" y="2369.3696">validateUnitSpawn(const sw::core::Unit &amp; unit) const : void</text><line style="stroke:#181818;stroke-width:1.5625;" x1="2690.2188" x2="4510.8181" y1="2391.0981" y2="2391.0981"/><rect fill="none" height="18.75" style="stroke:#C82930;stroke-width:3.125;" width="18.75" x="2712.0938" y="2424.6736"/><text fill="#000000" font-family="sans-serif" font-size="43.75" lengthAdjust="spacing" textLength="473.9227" x="2749.5938" y="2445.8955">map : sw::core::IMap *</text><rect fill="none" height="18.75" style="stroke:#C82930;stroke-width:3.125;" width="18.75" x="2712.0938" y="2476.1995"/><text fill="#000000" font-family="sans-serif" font-size="43.75" lengthAdjust="spacing" textLength="827.2125" x="2749.5938" y="2497.4214">unitManager : sw::core::IUnitManager *</text></g><!--class C_0008402695384628255762--><g class="entity" data-entity="C_0008402695384628255762" data-source-line="114" data-uid="ent0012" id="entity_C_0008402695384628255762"><rect fill="#F1F1F1" height="253.0518" rx="7.8125" ry="7.8125" style="stroke:#181818;stroke-width:1.5625;" width="1420.3888" x="4624.7188" y="2124.7813"/><ellipse cx="5015.0615" cy="2174.7813" fill="#ADD1B2" rx="34.375" ry="34.375" style="stroke:#181818;stroke-width:3.125;"/><path d="M5022.79,2193.9783 Q5020.9742,2194.9122 5018.9769,2195.3791 Q5016.9795,2195.846 5014.7746,2195.846 Q5006.9407,2195.846 5002.8163,2190.684 Q4998.6918,2185.5219 4998.6918,2175.7685 Q4998.6918,2165.9891 5002.8163,2160.8271 Q5006.9407,2155.665 5014.7746,2155.665 Q5016.9795,2155.665 5019.0028,2156.132 Q5021.0261,2156.5989 5022.79,2157.5327 L5022.79,2166.041 Q5020.8186,2164.2252 5018.9639,2163.3822 Q5017.1092,2162.5391 5015.1378,2162.5391 Q5010.9355,2162.5391 5008.7954,2165.8724 Q5006.6554,2169.2057 5006.6554,2175.7685 Q5006.6554,2182.3054 5008.7954,2185.6386 Q5010.9355,2188.9719 5015.1378,2188.9719 Q5017.1092,2188.9719 5018.9639,2188.1289 Q5020.8186,2187.2858 5022.79,2185.47 Z " fill="#000000"/><text fill="#000000" font-family="sans-serif" font-size="43.75" lengthAdjust="spacing" textLength="613.1409" x="5079.124" y="2191.3157">sw::features::LifecycleService</text><line style="stroke:#181818;stroke-width:1.5625;" x1="4627.8438" x2="6041.9825" y1="2224.7813" y2="2224.7813"/><ellipse cx="4659.0938" cy="2267.7317" fill="#84BE84" rx="9.375" ry="9.375" style="stroke:#038048;stroke-width:3.125;"/><text fill="#000000" font-family="sans-serif" font-size="43.75" lengthAdjust="spacing" textLength="1261.85" x="4687.2188" y="2279.5786">canBeAttacked(const sw::core::Health &amp; health) const : bool</text><ellipse cx="4659.0938" cy="2319.2576" fill="#84BE84" rx="9.375" ry="9.375" style="stroke:#038048;stroke-width:3.125;"/><text fill="#000000" font-family="sans-serif" font-size="43.75" lengthAdjust="spacing" textLength="1339.1388" x="4687.2188" y="2331.1045">shouldBeRemoved(const sw::core::Health &amp; health) const : bool</text><line style="stroke:#181818;stroke-width:1.5625;" x1="4627.8438" x2="6041.9825" y1="2352.833" y2="2352.833"/></g><!--class C_0013266760677540124724--><g class="entity" data-entity="C_0013266760677540124724" data-source-line="120" data-uid="ent0013" id="entity_C_0013266760677540124724"><rect fill="#F1F1F1" height="253.0518" rx="7.8125" ry="7.8125" style="stroke:#181818;stroke-width:1.5625;" width="4179.715" x="6154.4375" y="2124.7813"/><ellipse cx="7858.9358" cy="2174.7813" fill="#ADD1B2" rx="34.375" ry="34.375" style="stroke:#181818;stroke-width:3.125;"/><path d="M7866.6644,2193.9783 Q7864.8486,2194.9122 7862.8512,2195.3791 Q7860.8538,2195.846 7858.6489,2195.846 Q7850.8151,2195.846 7846.6906,2190.684 Q7842.5662,2185.5219 7842.5662,2175.7685 Q7842.5662,2165.9891 7846.6906,2160.8271 Q7850.8151,2155.665 7858.6489,2155.665 Q7860.8538,2155.665 7862.8771,2156.132 Q7864.9005,2156.5989 7866.6644,2157.5327 L7866.6644,2166.041 Q7864.6929,2164.2252 7862.8382,2163.3822 Q7860.9835,2162.5391 7859.0121,2162.5391 Q7854.8098,2162.5391 7852.6698,2165.8724 Q7850.5297,2169.2057 7850.5297,2175.7685 Q7850.5297,2182.3054 7852.6698,2185.6386 Q7854.8098,2188.9719 7859.0121,2188.9719 Q7860.9835,2188.9719 7862.8382,2188.1289 Q7864.6929,2187.2858 7866.6644,2185.47 Z " fill="#000000"/><text fill="#000000" font-family="sans-serif" font-size="43.75" lengthAdjust="spacing" textLength="744.1559" x="7922.9983" y="2191.3157">sw::features::MovementRuleService</text><line style="stroke:#181818;stroke-width:1.5625;" x1="6157.5625" x2="10331.0275" y1="2224.7813" y2="2224.7813"/><ellipse cx="6188.8125" cy="2267.7317" fill="#84BE84" rx="9.375" ry="9.375" style="stroke:#038048;stroke-width:3.125;"/><text fill="#000000" font-family="sans-serif" font-size="43.75" lengthAdjust="spacing" textLength="3753.0365" x="6216.9375" y="2279.5786">collectReachablePositions(const sw::core::Position &amp; currentPos, const sw::core::IMap &amp; map, uint32_t moveDistance, bool needsFreeCell) const : std::vector&lt;sw::core::Position&gt;</text><ellipse cx="6188.8125" cy="2319.2576" fill="#84BE84" rx="9.375" ry="9.375" style="stroke:#038048;stroke-width:3.125;"/><text fill="#000000" font-family="sans-serif" font-size="43.75" lengthAdjust="spacing" textLength="4098.465" x="6216.9375" y="2331.1045">findBestPosition(const std::vector&lt;sw::core::Position&gt; &amp; reachablePositions, const sw::core::Position &amp; currentPos, const std::optional&lt;sw::core::Position&gt; &amp; targetPos) const : sw::core::Position</text><line style="stroke:#181818;stroke-width:1.5625;" x1="6157.5625" x2="10331.0275" y1="2352.833" y2="2352.833"/></g><!--class C_0001105047625818279080--><g class="entity" data-entity="C_0001105047625818279080" data-source-line="126" data-uid="ent0014" id="entity_C_0001105047625818279080"><rect fill="#F1F1F1" height="432.6294" rx="7.8125" ry="7.8125" style="stroke:#181818;stroke-width:1.5625;" width="2133.6334" x="233.7188" y="2809.7187"/><ellipse cx="1072.6592" cy="2859.7187" fill="#ADD1B2" rx="34.375" ry="34.375" style="stroke:#181818;stroke-width:3.125;"/><path d="M1080.3878,2878.9158 Q1078.572,2879.8497 1076.5746,2880.3166 Q1074.5772,2880.7835 1072.3723,2880.7835 Q1064.5385,2880.7835 1060.414,2875.6215 Q1056.2896,2870.4594 1056.2896,2860.706 Q1056.2896,2850.9266 1060.414,2845.7646 Q1064.5385,2840.6025 1072.3723,2840.6025 Q1074.5772,2840.6025 1076.6005,2841.0695 Q1078.6238,2841.5364 1080.3878,2842.4702 L1080.3878,2850.9785 Q1078.4163,2849.1627 1076.5616,2848.3197 Q1074.7069,2847.4766 1072.7355,2847.4766 Q1068.5332,2847.4766 1066.3932,2850.8099 Q1064.2531,2854.1432 1064.2531,2860.706 Q1064.2531,2867.2429 1066.3932,2870.5761 Q1068.5332,2873.9094 1072.7355,2873.9094 Q1074.7069,2873.9094 1076.5616,2873.0664 Q1078.4163,2872.2233 1080.3878,2870.4075 Z " fill="#000000"/><text fill="#000000" font-family="sans-serif" font-size="43.75" lengthAdjust="spacing" textLength="429.1901" x="1136.7217" y="2876.2532">sw::features::Hunter</text><line style="stroke:#181818;stroke-width:1.5625;" x1="236.8438" x2="2364.2272" y1="2909.7187" y2="2909.7187"/><ellipse cx="268.0938" cy="2952.6692" fill="#84BE84" rx="9.375" ry="9.375" style="stroke:#038048;stroke-width:3.125;"/><text fill="#000000" font-family="sans-serif" font-size="43.75" lengthAdjust="spacing" textLength="2052.3834" x="296.2188" y="2964.5161">Hunter(sw::core::UnitId id, sw::core::Position pos, int hp, int agility, int strength, int range) : void</text><line style="stroke:#181818;stroke-width:3.125;stroke-dasharray:3.125,6.25;" x1="236.8438" x2="2364.2272" y1="2986.2446" y2="2986.2446"/><ellipse cx="268.0938" cy="3029.1951" fill="#84BE84" rx="9.375" ry="9.375" style="stroke:#038048;stroke-width:3.125;"/><text fill="#000000" font-family="sans-serif" font-size="43.75" lengthAdjust="spacing" textLength="497.9767" x="296.2188" y="3041.042">initializeActions() : void</text><line style="stroke:#181818;stroke-width:1.5625;" x1="236.8438" x2="2364.2272" y1="3062.7705" y2="3062.7705"/><rect fill="none" height="18.75" style="stroke:#C82930;stroke-width:3.125;" width="18.75" x="258.7188" y="3096.3459"/><text fill="#000000" font-family="sans-serif" font-size="43.75" lengthAdjust="spacing" textLength="226.2909" x="296.2188" y="3117.5679">agility : int</text><rect fill="none" height="18.75" style="stroke:#C82930;stroke-width:3.125;" width="18.75" x="258.7188" y="3147.8718"/><text fill="#000000" font-family="sans-serif" font-size="43.75" lengthAdjust="spacing" textLength="218.5577" x="296.2188" y="3169.0937">range : int</text><rect fill="none" height="18.75" style="stroke:#C82930;stroke-width:3.125;" width="18.75" x="258.7188" y="3199.3977"/><text fill="#000000" font-family="sans-serif" font-size="43.75" lengthAdjust="spacing" textLength="276.5778" x="296.2188" y="3220.6196">strength : int</text></g><!--class C_0010923495533931277779--><g class="entity" data-entity="C_0010923495533931277779" data-source-line="136" data-uid="ent0015" id="entity_C_0010923495533931277779"><rect fill="#F1F1F1" height="329.5776" rx="7.8125" ry="7.8125" style="stroke:#181818;stroke-width:1.5625;" width="1787.735" x="2475.4063" y="2861.25"/><ellipse cx="3091.9224" cy="2911.25" fill="#ADD1B2" rx="34.375" ry="34.375" style="stroke:#181818;stroke-width:3.125;"/><path d="M3099.6509,2930.4471 Q3097.8351,2931.3809 3095.8378,2931.8478 Q3093.8404,2932.3148 3091.6355,2932.3148 Q3083.8016,2932.3148 3079.6772,2927.1527 Q3075.5527,2921.9907 3075.5527,2912.2372 Q3075.5527,2902.4579 3079.6772,2897.2958 Q3083.8016,2892.1338 3091.6355,2892.1338 Q3093.8404,2892.1338 3095.8637,2892.6007 Q3097.887,2893.0676 3099.6509,2894.0015 L3099.6509,2902.5098 Q3097.6795,2900.694 3095.8248,2899.8509 Q3093.9701,2899.0079 3091.9987,2899.0079 Q3087.7964,2899.0079 3085.6563,2902.3412 Q3083.5163,2905.6744 3083.5163,2912.2372 Q3083.5163,2918.7741 3085.6563,2922.1074 Q3087.7964,2925.4407 3091.9987,2925.4407 Q3093.9701,2925.4407 3095.8248,2924.5976 Q3097.6795,2923.7546 3099.6509,2921.9388 Z " fill="#000000"/><text fill="#000000" font-family="sans-serif" font-size="43.75" lengthAdjust="spacing" textLength="528.1403" x="3155.9849" y="2927.7844">sw::features::Swordsman</text><line style="stroke:#181818;stroke-width:1.5625;" x1="2478.5313" x2="4260.0162" y1="2961.25" y2="2961.25"/><ellipse cx="2509.7813" cy="3004.2004" fill="#84BE84" rx="9.375" ry="9.375" style="stroke:#038048;stroke-width:3.125;"/><text fill="#000000" font-family="sans-serif" font-size="43.75" lengthAdjust="spacing" textLength="1706.485" x="2537.9063" y="3016.0474">Swordsman(sw::core::UnitId id, sw::core::Position pos, int hp, int strength) : void</text><line style="stroke:#181818;stroke-width:3.125;stroke-dasharray:3.125,6.25;" x1="2478.5313" x2="4260.0162" y1="3037.7759" y2="3037.7759"/><ellipse cx="2509.7813" cy="3080.7263" fill="#84BE84" rx="9.375" ry="9.375" style="stroke:#038048;stroke-width:3.125;"/><text fill="#000000" font-family="sans-serif" font-size="43.75" lengthAdjust="spacing" textLength="497.9767" x="2537.9063" y="3092.5732">initializeActions() : void</text><line style="stroke:#181818;stroke-width:1.5625;" x1="2478.5313" x2="4260.0162" y1="3114.3018" y2="3114.3018"/><rect fill="none" height="18.75" style="stroke:#C82930;stroke-width:3.125;" width="18.75" x="2500.4063" y="3147.8772"/><text fill="#000000" font-family="sans-serif" font-size="43.75" lengthAdjust="spacing" textLength="276.5778" x="2537.9063" y="3169.0991">strength : int</text></g><!--SRC=[jLXPKzj847xthvZAG-A0JOrkoSLIHGu2LR1BaMpsaHgajgr5bXoDP9BTod_Vxf5idJO6DhpWcPxfy-kURidxC5wAL2oYnB-7WDq9_twM9daS-4cKfEnX7cOmaArJmJ9a1kU3D-mCH9Qd8DbL4kGHi35xdyH-2XcmYyKoWWN4cSZ299O3Fn9IibVoOJAPbhScarEVY1-_WvzdIVePqbNemoic97j_oxbcExgh6vxhSLEpkQqPcbNosKPc_muEGR638OdoanGcap_ZC6ElMOx_HgpQBgIZnXby9xfV_7hB9kmkIQB1xUtWPx_UDoAUGN2QPUYlIbtDq7N7jZNNiprkQ9fkkdLrUyYaRftNC8mpjWXZjJTYQYM-rrQ1M0ZwJVgn5Bxb8UhpUt8Q_2ryz3KPAjblR2eY2MJ7AWc3mT7HuD0NfPjXY6RAZ9K-4JuwViIAlT8XS_3ljtjbZAok8PqcwQAX-dFP5cTAvflWDVdiY9IoS3mDu-2BI6UGoHSh8hDWCba1NJnMN0vE1kEvQBlv_p5u7Cgl8WfBvGkp3rYcLcjsVIAk4ncI4DnV9h9dLvt6TKiUOdfSW0Xt4563yHfWctK9l_Lw6yfAXbiov2fPLOdC3SEnJ8TRXkLQjcPxdgxNCgEFJ9b1F8OvAc7ejvW8kFeGoap4FY34jLy5RuY3Av7wy-4-Rh_uk4A7N2Qp6QIu5waV8qPAsoOgxUTfYWU-XFvz5GYbzNEHdYy3aG5TMklIud1n9PQuMeXbZz8nF5ptmYM9WkkN6KJ8QiHemjQnsmeIY03QLLGtkMER6XPsHtCyhbkkNQ-YFMI5bOhLi2gKlmWZBwbIjMp_DQMga-4_TxszfoiHHk8kZCBiXv86QHKApXtBiotJr5p7Cd2jDKBHGwPGR6LSUv4LI0yAaDPsoOOh4Gi2tu5whyjL8v1OYqlk4HJ2IaVsllWz1H35alDQsc1krSHFjkgrpQ6Vn08eLc6SYqtmQkxaZgDhtEMQOLYUuvg6sMXd-iZapYriX_kuhU7ShN71EyAliMuuMywJF0fA1M3Ouyt6tQRVTeXygRSnPEMP2g-6fZkQRTiwvrWVE3udzMUcZqmEnduLAohogzwQXp38vgDD_M9p26VpAf4FCNdfV2qHsrWYa3QFjD57gOik-9R3xJ9BZviSJdQONSjFXviwjfMsYnsbPc5dwJJoiqjMfV89bX82fYb09y7Q3s4pzIu25WODTvqhlZLtRDu6eggEuZHxH4f_tMjBFb4S_oAxUiM5yW_VpvSX17kBAuf-sQazyLP2mdwyo7y4cY8kTKF6IMd6UuWYMI4gIGD88RX5c1rtvOrQfoHaNGzYlwjmiSSJ_W6c8e-oMifMzSwpR0U77Oxb33iwpJMq-ZpKHoPuTZaE6t0KGK2quVO48l99MVjh42nkzVcvcyN5OxgvTfR7nJlJWk2qt3zkt-p8UNjI0Rt6fOH57SwxpJfXhoj65zYf1s4kTw6B6lPr1wSoF5LNziabwYOwiXvtnIv-R8UgexMAvAiKL2y98bYxR1r9MTJUlbwYaJ6x7ddPjliHfsz3Fr4_ByL3h2g3G5OL-ZMRcuHmZjLNrpJBDeqw-dl8XFuknoRwzx6U3jNJvqaDrk6g4DmSCHuhN-fxH5cG91MazhHJvwhiswzbsokQpsyYBiCf-3_y2DgVdhXhSjtsBCCrRTtLBSkn6nDh3rcr4Y9-LquXFS_BEOW8Y-fhV6JfH_kbA3gjTt2ZeF_Kwzi_Lj4OJH_YRlAkdTGTs8xDRGSdS1gk7Drij4nTih8pYIBCd1iG_fowy3KSTbUYOdIipP-jS9P3Q-_4Nq8i1WZa6JOaJOprrvorR2mdD7cz0za1zEvxg57QCR6h_6uRIKIo9Bg8jWWfFlSqFjPq3-w8y7bEDRvMUZHkSHCnQRcQg-EKxF96wUcIAQW5bxuNSjHdhCfx6hNdo-A_cAaElrZ83FqmezQILYbzK6hKiH1vXrWJ_Yadk5g5LpD5mMlp3Qh-GMhDUlTu-_a1Mnov476jNVPqm_Giop0y6WNmpskqorqokMN3wFcUMMly50zqh1oy-GGnf5X30-pQaO2gnxDnleX6R0Mf9Cdyo3xI1sykBxzURVREamNSfV1GdDziwzgHTcJz1m00]--></g></svg>